<?xml version="1.0" encoding="utf-8"?>
<!-- Generator: Adobe Illustrator 27.0.0, SVG Export Plug-In . SVG Version: 6.00 Build 0)  -->
<svg version="1.1" id="Layer_1" xmlns="http://www.w3.org/2000/svg" xmlns:xlink="http://www.w3.org/1999/xlink" x="0px" y="0px"
	 viewBox="0 0 512 512" style="enable-background:new 0 0 512 512;" xml:space="preserve">
<style type="text/css">
	.st0{fill:#FFFFFF;}
</style>
<text transform="matrix(1 0 0 1 168.783 543.8093)" style="fill:#FFFF00; font-family:'Verdana-Bold'; font-size:20px;">simpleicon.com</text>
<text transform="matrix(1 0 0 1 9.1931 567.8093)" style="fill:#FFFF00; font-family:'Verdana'; font-size:20px;">Collection Of Flat Icon, Symbols And Glyph Icons</text>
<g>
	<path class="st0" d="M265.23,364.38c-5.21-3.83-5.76-9.58-5.76-9.58l-1.95-12.47h-62.2l-1.96,12.47c0,0-0.54,5.75-5.75,9.58
		c-5.2,3.83-9.31,7.11-5.2,7.67c3.96,0.53,41.26,0.05,44.01,0c2.76,0.05,40.05,0.53,44.01,0
		C274.53,371.5,270.42,368.22,265.23,364.38z"/>
	<path class="st0" d="M120.54,259.69c0-5.77-4.68-10.45-10.45-10.45H60.45c-5.77,0-10.45,4.68-10.45,10.45v109.72
		c0,5.78,4.68,10.45,10.45,10.45h49.64c5.77,0,10.45-4.68,10.45-10.45L120.54,259.69L120.54,259.69z M80.08,261h10.45
		c0.72,0,1.31,0.58,1.31,1.3c0,0.72-0.58,1.31-1.31,1.31H80.08c-0.72,0-1.31-0.59-1.31-1.31C78.78,261.58,79.36,261,80.08,261z
		 M84.88,373.68c-2.89,0-5.23-2.34-5.23-5.23c0-2.89,2.34-5.23,5.23-5.23c2.89,0,5.22,2.33,5.22,5.23
		C90.1,371.35,87.76,373.68,84.88,373.68z M114.01,358.97H56.53v-87.52h57.48L114.01,358.97L114.01,358.97z"/>
	<path class="st0" d="M447.34,189.14h-107.5c-8.1,0-14.66,6.56-14.66,14.65v153.85c0,8.1,6.56,14.66,14.66,14.66h107.5
		c8.1,0,14.66-6.57,14.66-14.66V203.79C462,195.69,455.44,189.14,447.34,189.14z M372.55,364.15c-4.05,0-7.33-3.27-7.33-7.32
		c0-4.05,3.29-7.33,7.33-7.33c4.04,0,7.32,3.28,7.32,7.33C379.86,360.88,376.59,364.15,372.55,364.15z M393.59,364.15
		c-4.04,0-7.32-3.27-7.32-7.32c0-4.05,3.28-7.33,7.32-7.33c4.05,0,7.33,3.28,7.33,7.33C400.92,360.88,397.65,364.15,393.59,364.15z
		 M414.65,364.15c-4.05,0-7.33-3.27-7.33-7.32c0-4.05,3.27-7.33,7.33-7.33c4.04,0,7.32,3.28,7.32,7.33
		C421.98,360.88,418.7,364.15,414.65,364.15z M452.84,342.99H334.35V201.95h118.49V342.99L452.84,342.99z"/>
	<path class="st0" d="M358.55,176.78h18.02v-32.63c0-6.64-5.38-12.01-12.01-12.01H88.29c-6.63,0-12.01,5.38-12.01,12.01v92.74h18.02
		v-86.74h264.25V176.78L358.55,176.78z"/>
	<path class="st0" d="M132.9,294.29v36.03h179.93v-36.03H132.9z M226.42,320.54c-4.55,0-8.24-3.69-8.24-8.24
		c0-4.55,3.69-8.24,8.24-8.24c4.55,0,8.24,3.69,8.24,8.24C234.66,316.85,230.96,320.54,226.42,320.54z"/>
</g>
</svg>
