<?xml version="1.0" encoding="utf-8"?>
<!-- Generator: Adobe Illustrator 27.0.0, SVG Export Plug-In . SVG Version: 6.00 Build 0)  -->
<svg version="1.1" xmlns="http://www.w3.org/2000/svg" xmlns:xlink="http://www.w3.org/1999/xlink" x="0px" y="0px"
	 viewBox="0 0 492 492" style="enable-background:new 0 0 492 492;" xml:space="preserve">
<style type="text/css">
	.st0{fill-rule:evenodd;clip-rule:evenodd;fill:#323B4B;}
	.st1{fill:#323B4B;}
</style>
<g id="Master_Layer_7">
</g>
<g id="Layer_1">
	<g>
		<path class="st0" d="M92.56,125.4h307.41c8.14,0,15.88,3.24,21.63,8.99c5.75,5.75,8.99,13.49,8.99,21.63v181.45
			c0,8.14-3.24,15.88-8.99,21.63c-5.75,5.75-13.49,8.99-21.63,8.99H92.56c-8.14,0-15.88-3.24-21.63-8.99
			c-5.75-5.75-8.99-13.49-8.99-21.63V156.01c0-8.14,3.24-15.88,8.99-21.63C76.68,128.63,84.42,125.4,92.56,125.4L92.56,125.4z
			 M399.96,142.41H92.56c-3.62,0-7.04,1.45-9.6,4c-2.55,2.55-4,5.98-4,9.6v181.45c0,3.62,1.45,7.04,4,9.6c2.55,2.55,5.98,4,9.6,4
			h307.41c3.62,0,7.05-1.45,9.6-4c2.55-2.55,4-5.98,4-9.6V156.01c0-3.62-1.45-7.04-4-9.6C407.01,143.86,403.58,142.41,399.96,142.41
			z"/>
		<polygon class="st1" points="427.74,178.68 427.74,217.78 427.74,223.45 422.07,223.45 70.45,223.45 64.78,223.45 64.78,217.78 
			64.78,178.68 64.78,173.01 70.45,173.01 422.07,173.01 427.74,173.01 		"/>
		<path class="st1" d="M125.45,258.08c4.12,0,8.08,0.74,11.75,2.09c0.32,0.12,0.64,0.24,0.96,0.37c-1.4,1.07-2.73,2.23-3.99,3.49
			c-7.47,7.46-11.63,17.51-11.63,28.07c0,10.56,4.16,20.61,11.63,28.07c1.26,1.26,2.59,2.42,3.99,3.49
			c-0.32,0.13-0.64,0.25-0.96,0.37c-3.68,1.36-7.64,2.1-11.75,2.1c-9.4,0-17.9-3.81-24.06-9.97c-6.16-6.16-9.97-14.66-9.97-24.06
			c0-9.4,3.81-17.9,9.97-24.06C107.54,261.89,116.05,258.08,125.45,258.08z"/>
		<path class="st1" d="M138.18,268.04c6.16-6.16,14.66-9.97,24.06-9.97c9.4,0,17.9,3.81,24.06,9.97c6.16,6.16,9.97,14.67,9.97,24.06
			c0,9.4-3.81,17.9-9.97,24.06c-6.16,6.16-14.66,9.97-24.06,9.97c-9.4,0-17.9-3.81-24.06-9.97c-6.16-6.16-9.97-14.66-9.97-24.06
			C128.22,282.71,132.03,274.2,138.18,268.04z"/>
		<path class="st0" d="M227.49,283.6h36.33c4.42,0,8.01,3.81,8.01,8.51c0,4.7-3.59,8.51-8.01,8.51h-36.33
			c-4.42,0-8.01-3.81-8.01-8.51C219.48,287.41,223.06,283.6,227.49,283.6L227.49,283.6z M290.77,283.6h36.33
			c4.42,0,8.01,3.81,8.01,8.51c0,4.7-3.59,8.51-8.01,8.51h-36.33c-4.42,0-8.01-3.81-8.01-8.51
			C282.76,287.41,286.35,283.6,290.77,283.6L290.77,283.6z M354.06,283.6h36.33c4.42,0,8.01,3.81,8.01,8.51
			c0,4.7-3.59,8.51-8.01,8.51h-36.33c-4.42,0-8.01-3.81-8.01-8.51C346.05,287.41,349.64,283.6,354.06,283.6z"/>
	</g>
</g>
</svg>
